General
Complete name                            : Good Will Hunting [1997] BRRip XviD - CODY.avi
Format                                   : AVI
Format/Info                              : Audio Video Interleave
File size                                : 1.08 GiB
Duration                                 : 2h 6mn
Overall bit rate                         : 1 217 Kbps
Writing application                      : VirtualDubMod 1.5.10.3 | www.virtualdub-fr.org || (build 2550/release)
Writing library                          : VirtualDubMod build 2550/release

Video
ID                                       : 0
Format                                   : MPEG-4 Visual
Format profile                           : Advanced Simple@L5
Format settings, BVOP                    : 4
Format settings, QPel                    : No
Format settings, GMC                     : No warppoints
Format settings, Matrix                  : Default (H.263)
Codec ID                                 : XVID
Codec ID/Hint                            : XviD
Duration                                 : 2h 6mn
Bit rate                                 : 1 080 Kbps
Width                                    : 720 pixels
Height                                   : 392 pixels
Display aspect ratio                     : 16:9
Frame rate                               : 23.976 fps
Color space                              : YUV
Chroma subsampling                       : 4:2:0
Bit depth                                : 8 bits
Scan type                                : Progressive
Compression mode                         : Lossy
Bits/(Pixel*Frame)                       : 0.160
Stream size                              : 977 MiB (89%)
Writing library                          : XviD 1.2.1 (UTC 2008-12-04)

Audio
ID                                       : 1
Format                                   : MPEG Audio
Format version                           : Version 1
Format profile                           : Layer 3
Codec ID                                 : 55
Codec ID/Hint                            : MP3
Duration                                 : 2h 6mn
Bit rate mode                            : Constant
Bit rate                                 : 128 Kbps
Channel(s)                               : 2 channels
Sampling rate                            : 48.0 KHz
Compression mode                         : Lossy
Stream size                              : 116 MiB (11%)
Alignment                                : Aligned on interleaves
Interleave, duration                     : 42 ms (1.00 video frame)
Interleave, preload duration             : 504 ms
Writing library                          : L3.99r
Encoding settings                        : -m s -V 4 -q 2 -lowpass 17 -b 128



IMDB link:                                 http://www.imdb.com/title/tt0119217/



Subtitles included: Arabic, Chinese, Croatian, Czech, Dutch, English, Finnish, French, Greek, Hungarian, Polish, Portuguese, Romanian, Serbian, Slovenian, Spanish, Vietnamese



Please seed at least 1,5:1. This way this torrent has a chance to survive !



Thanks. Enjoy !!